<svg xmlns="http://www.w3.org/2000/svg" width="500" height="387" fill="none" viewBox="0 0 500 387">
  <path fill="#045185" d="M44 128h113v113H44z"/>
  <path fill="#279BBA" d="M172 0h113v113H172z"/>
  <g clip-path="url(#a)">
    <path fill="#fff" stroke="#28465F" d="M105.375 154.375A4.37 4.37 0 0 0 101 150a4.37 4.37 0 0 0-4.375 4.375v1.572c0 6.823-8.244 10.241-13.07 5.414l-1.121-1.107a4.365 4.365 0 0 0-6.18 0 4.381 4.381 0 0 0 0 6.193l1.121 1.121c4.813 4.813 1.394 13.057-5.428 13.057h-1.572A4.37 4.37 0 0 0 66 185a4.37 4.37 0 0 0 4.375 4.375h1.572c6.822 0 10.24 8.244 5.414 13.07l-1.107 1.121a4.382 4.382 0 0 0 0 6.194 4.382 4.382 0 0 0 6.193 0l1.121-1.121c4.826-4.827 13.07-1.409 13.07 5.414v1.572a4.37 4.37 0 0 0 4.376 4.375 4.37 4.37 0 0 0 4.375-4.375v-1.572c0-6.823 8.244-10.241 13.07-5.414l1.121 1.121a4.381 4.381 0 0 0 6.193 0 4.382 4.382 0 0 0 0-6.194l-1.121-1.121c-4.826-4.826-1.408-13.07 5.414-13.07h1.573a4.37 4.37 0 0 0 4.375-4.375 4.37 4.37 0 0 0-4.375-4.375h-1.573c-6.822 0-10.24-8.244-5.414-13.07l1.121-1.121a4.382 4.382 0 0 0 0-6.194 4.381 4.381 0 0 0-6.193 0l-1.121 1.121c-4.84 4.827-13.084 1.409-13.084-5.414v-1.572Zm-15.313 26.25a6.56 6.56 0 0 1 4.052-6.063 6.56 6.56 0 0 1 9.073 6.063 6.555 6.555 0 0 1-1.922 4.64 6.551 6.551 0 0 1-4.64 1.923 6.56 6.56 0 0 1-6.063-4.052 6.56 6.56 0 0 1-.5-2.511Zm17.5 7.656a3.284 3.284 0 0 1 3.282 3.281 3.284 3.284 0 0 1-3.282 3.282 3.284 3.284 0 0 1-3.281-3.282 3.284 3.284 0 0 1 3.281-3.281Z"/>
  </g>
  <path fill="#3C3988" d="M171.5 259h133v128h-133z"/>
  <path fill="#535ABE" d="M172 128h131v131H172z"/>
  <path fill="#E26B30" d="M303 128h128v131H303z"/>
  <path fill="#7E46BA" d="M44 262h125v29H44z"/>
  <path fill="#29AF2D" d="M303 262h128v29H303z"/>
  <rect width="113" height="113" x="44" fill="#0B76B3" rx="20"/>
  <path fill="#0B76B3" d="M44 60.267h113V113H44V60.267Z"/>
  <path fill="#0B76B3" d="M135 0h22v113h-22V0Z"/>
  <rect width="125" height="125" x="44" y="262" fill="#013560" rx="20"/>
  <path fill="#013560" d="M150 262h22v125h-22z"/>
  <path fill="#013560" d="M44 259h128v29H44z"/>
  <rect width="125" height="125" x="306" y="262" fill="#FDA636" rx="20"/>
  <path fill="#FDA636" d="M303 262h22v125h-22z"/>
  <path fill="#FDA636" d="M303 259h128v29H303z"/>
  <rect width="125" height="125" x="306" fill="#188CB1" rx="20"/>
  <path fill="#188CB1" d="M303 0h25v128h-25z"/>
  <path fill="#188CB1" d="M306 99h125v29H306z"/>
  <path fill="#28465F" stroke="#28465F" d="m.993 357.733 59.276-57.027 9.983 10.377-59.276 57.027zm419.86-228.293 27.509-28.2 10.074 9.828-27.508 28.2z"/>
  <circle cx="459.28" cy="101.28" r="18.78" fill="#28465F" stroke="#28465F"/>
  <mask id="b" fill="#fff">
    <path d="m431.043 139.705.024.024-.023.023.001.155-.078-.075-63.343 65.374a19.223 19.223 0 0 1 1.3 6.97c0 10.648-8.632 19.28-19.28 19.28-9.27 0-17.011-6.542-18.86-15.26l-30.167-14.303c-3.535 4.069-8.747 6.643-14.561 6.643-2.538 0-4.96-.492-7.179-1.383l-48.055 61.516a19.37 19.37 0 0 1 .25 3.095c0 10.648-8.632 19.28-19.28 19.28-9.989 0-18.204-7.596-19.183-17.327l-31.622-31.042a19.186 19.186 0 0 1-10.963 3.421c-3.551 0-6.878-.961-9.735-2.636l-85.197 83.003.005.005-.267.25-.24.234-.003-.005-10.664 10.051.023-20.972-.101-.104 87.322-85.075a19.39 19.39 0 0 1-.423-4.031c0-10.648 8.632-19.28 19.28-19.28 10.648 0 19.28 8.632 19.28 19.28 0 .781-.048 1.551-.138 2.308l29.272 28.734a19.213 19.213 0 0 1 13.354-5.374c3.647 0 7.058 1.013 9.967 2.773l46.25-59.206a19.24 19.24 0 0 1-1.233-6.795c0-10.648 8.632-19.28 19.28-19.28 9.893 0 18.044 7.452 19.15 17.048l28.918 13.711c3.511-4.755 9.155-7.838 15.52-7.839 2.523 0 4.933.485 7.141 1.367l63.224-65.25.024.023 10.885-10.714.125 21.383Z"/>
  </mask>
  <path fill="#fff" d="m431.043 139.705.024.024-.023.023.001.155-.078-.075-63.343 65.374a19.223 19.223 0 0 1 1.3 6.97c0 10.648-8.632 19.28-19.28 19.28-9.27 0-17.011-6.542-18.86-15.26l-30.167-14.303c-3.535 4.069-8.747 6.643-14.561 6.643-2.538 0-4.96-.492-7.179-1.383l-48.055 61.516a19.37 19.37 0 0 1 .25 3.095c0 10.648-8.632 19.28-19.28 19.28-9.989 0-18.204-7.596-19.183-17.327l-31.622-31.042a19.186 19.186 0 0 1-10.963 3.421c-3.551 0-6.878-.961-9.735-2.636l-85.197 83.003.005.005-.267.25-.24.234-.003-.005-10.664 10.051.023-20.972-.101-.104 87.322-85.075a19.39 19.39 0 0 1-.423-4.031c0-10.648 8.632-19.28 19.28-19.28 10.648 0 19.28 8.632 19.28 19.28 0 .781-.048 1.551-.138 2.308l29.272 28.734a19.213 19.213 0 0 1 13.354-5.374c3.647 0 7.058 1.013 9.967 2.773l46.25-59.206a19.24 19.24 0 0 1-1.233-6.795c0-10.648 8.632-19.28 19.28-19.28 9.893 0 18.044 7.452 19.15 17.048l28.918 13.711c3.511-4.755 9.155-7.838 15.52-7.839 2.523 0 4.933.485 7.141 1.367l63.224-65.25.024.023 10.885-10.714.125 21.383Z"/>
  <path fill="#28465F" d="m431.043 139.705-1 .006.002.423.305.292.693-.721Zm.024.024.707.707.722-.722-.736-.707-.693.722Zm-.023.023-.707-.707-.296.295.003.418 1-.006Zm.001.155-.694.721 1.709 1.644-.015-2.371-1 .006Zm-.078-.075.693-.72-.718-.692-.693.716.718.696Zm-63.343 65.374-.718-.696-.446.46.232.598.932-.362Zm1.3 6.97h1-1Zm-19.28 19.28v1-1Zm-18.86-15.26.978-.207-.102-.484-.447-.212-.429.903Zm-30.167-14.303.429-.904-.686-.325-.498.573.755.656Zm-14.561 6.643v1-1Zm-7.179-1.383.373-.928-.698-.28-.463.593.788.615Zm-48.055 61.516-.788-.616-.269.344.07.431.987-.159Zm.25 3.095h1-1Zm-19.28 19.28v1-1Zm-19.183-17.327.995-.1-.036-.36-.258-.254-.701.714Zm-31.622-31.042.701-.714-.59-.579-.68.471.569.822Zm-10.963 3.421v1-1Zm-9.735-2.636.506-.863-.658-.385-.546.532.698.716Zm-85.197 83.003-.698-.716-.726.707.717.716.707-.707Zm.005.005.684.729.753-.706-.73-.73-.707.707Zm-.267.25-.684-.73-.008.008-.008.007.7.715Zm-.24.234-.78.625.69.863.79-.773-.7-.715Zm-.003-.005.78-.624-.677-.847-.789.744.686.727Zm-10.664 10.051-1-.001-.003 2.32 1.689-1.591-.686-.728Zm.023-20.972 1 .001v-.406l-.283-.292-.717.697Zm-.101-.104-.698-.716-.715.697.696.716.717-.697Zm87.322-85.075.698.716.395-.385-.115-.539-.978.208Zm-.423-4.031h-1 1Zm19.28-19.28v-1 1Zm19.28 19.28h1-1Zm-.138 2.308-.993-.118-.058.487.35.345.701-.714Zm29.272 28.734-.701.714.693.68.7-.672-.692-.722Zm13.354-5.374v-1 1Zm9.967 2.773-.518.855.759.46.547-.7-.788-.615Zm46.25-59.206.788.615.346-.442-.198-.526-.936.353Zm-1.233-6.795h-1 1Zm19.28-19.28v-1 1Zm19.15 17.048-.993.115.063.551.502.238.428-.904Zm28.918 13.711-.428.904.743.353.489-.663-.804-.594Zm15.52-7.839v-1 1Zm7.141 1.367-.37.928.622.249.466-.481-.718-.696Zm63.224-65.25.692-.722-.718-.689-.692.715.718.696Zm.024.023-.692.722.701.673.693-.682-.702-.713Zm10.885-10.714 1-.006-.014-2.368-1.688 1.662.702.712Zm.125 21.383-.693.721.025.024.692-.721.693-.722-.024-.023-.693.721Zm.024.024-.707-.708-.023.024.707.707.707.707.023-.023-.707-.707Zm-.023.023-1 .006.001.156 1-.007 1-.006-.001-.155-1 .006Zm.001.155.693-.72-.078-.075-.693.72-.694.721.078.075.694-.721Zm-.078-.075-.718-.696-63.343 65.374.718.696.718.696 63.343-65.374-.718-.696Zm-63.343 65.374-.932.362a18.241 18.241 0 0 1 1.232 6.608h2c0-2.584-.485-5.057-1.368-7.332l-.932.362Zm1.3 6.97h-1c0 10.096-8.185 18.28-18.28 18.28v2c11.2 0 20.28-9.08 20.28-20.28h-1Zm-19.28 19.28v-1c-8.788 0-16.128-6.202-17.882-14.467l-.978.207-.978.208c1.945 9.17 10.086 16.052 19.838 16.052v-1Zm-18.86-15.26.429-.903-30.167-14.304-.429.904-.428.903 30.167 14.304.428-.904Zm-30.167-14.303-.755-.656a18.236 18.236 0 0 1-13.806 6.299v2c6.115 0 11.599-2.709 15.316-6.988l-.755-.655Zm-14.561 6.643v-1c-2.408 0-4.704-.466-6.806-1.311l-.373.928-.373.928a20.216 20.216 0 0 0 7.552 1.455v-1Zm-7.179-1.383-.788-.615-48.055 61.515.788.616.788.616 48.055-61.516-.788-.616Zm-48.055 61.516-.987.159c.154.957.237 1.937.237 2.936h2c0-1.109-.092-2.196-.263-3.254l-.987.159Zm.25 3.095h-1c0 10.095-8.184 18.28-18.28 18.28v2c11.2 0 20.28-9.08 20.28-20.28h-1Zm-19.28 19.28v-1c-9.47 0-17.26-7.202-18.188-16.427l-.995.1-.995.1c1.03 10.237 9.67 18.227 20.178 18.227v-1Zm-19.183-17.327.701-.714-31.622-31.042-.701.714-.7.713 31.622 31.042.7-.713Zm-31.622-31.042-.569-.822a18.189 18.189 0 0 1-10.394 3.243v2a20.19 20.19 0 0 0 11.533-3.599l-.57-.822Zm-10.963 3.421v-1c-3.368 0-6.521-.911-9.229-2.499l-.506.863-.506.863a20.194 20.194 0 0 0 10.241 2.773v-1Zm-9.735-2.636-.698-.716-85.197 83.003.698.716.698.716 85.197-83.003-.698-.716Zm-85.197 83.003-.707.707.005.005.707-.707.707-.707-.005-.005-.707.707Zm.005.005-.684-.73-.267.25.684.73.684.729.267-.25-.684-.729Zm-.267.25-.7-.715-.239.235.7.714.7.715.239-.235-.7-.714Zm-.24.234.782-.625-.004-.004-.781.624-.781.625.004.005.78-.625Zm-.003-.005-.686-.727-10.664 10.05.686.728.686.728 10.664-10.051-.686-.728Zm-10.664 10.051 1 .001.023-20.972-1-.001-1-.001-.023 20.972 1 .001Zm.023-20.972.717-.697-.101-.104-.717.697-.717.697.101.104.717-.697Zm-.101-.104.698.716 87.322-85.075-.698-.716-.698-.717-87.322 85.076.698.716Zm87.322-85.075.978-.208a18.371 18.371 0 0 1-.401-3.823h-2c0 1.453.154 2.871.445 4.239l.978-.208Zm-.423-4.031h1c0-10.095 8.185-18.28 18.28-18.28v-2c-11.2 0-20.28 9.08-20.28 20.28h1Zm19.28-19.28v1c10.096 0 18.28 8.185 18.28 18.28h2c0-11.2-9.079-20.28-20.28-20.28v1Zm19.28 19.28h-1c0 .741-.045 1.471-.131 2.19l.993.118.993.118c.095-.795.145-1.604.145-2.426h-1Zm-.138 2.308-.701.714 29.272 28.734.701-.714.7-.713-29.271-28.735-.701.714Zm29.272 28.734.692.722a18.215 18.215 0 0 1 12.662-5.096v-2a20.214 20.214 0 0 0-14.047 5.653l.693.721Zm13.354-5.374v1c3.46 0 6.692.96 9.449 2.628l.518-.855.517-.856a20.194 20.194 0 0 0-10.484-2.917v1Zm9.967 2.773.788.615 46.25-59.206-.788-.615-.788-.616-46.25 59.206.788.616Zm46.25-59.206.936-.353a18.219 18.219 0 0 1-1.169-6.442h-2c0 2.514.459 4.923 1.297 7.147l.936-.352Zm-1.233-6.795h1c0-10.096 8.184-18.28 18.28-18.28v-2c-11.201 0-20.28 9.08-20.28 20.28h1Zm19.28-19.28v1c9.379 0 17.108 7.065 18.157 16.163l.993-.115.993-.114c-1.163-10.095-9.736-17.934-20.143-17.934v1Zm19.15 17.048-.428.904 28.918 13.711.428-.904.428-.903-28.918-13.711-.428.903Zm28.918 13.711.804.594c3.331-4.51 8.682-7.432 14.716-7.433v-2c-6.696.001-12.633 3.246-16.324 8.245l.804.594Zm15.52-7.839v1c2.393 0 4.678.46 6.771 1.295l.37-.928.371-.929a20.22 20.22 0 0 0-7.512-1.438v1Zm7.141 1.367.718.696 63.224-65.25-.718-.696-.718-.696-63.224 65.25.718.696Zm63.224-65.25-.693.721.025.024.692-.722.693-.721-.025-.024-.692.722Zm.024.023.702.713 10.884-10.714-.701-.713-.702-.712-10.884 10.713.701.713Zm10.885-10.714-1 .006.125 21.383 1-.006 1-.006-.125-21.383-1 .006Z" mask="url(#b)"/>
  <g clip-path="url(#c)">
    <path fill="#fff" stroke="#28465F" d="M245.717 83.333a2.714 2.714 0 0 0 .23-3.752l-4.605-5.36V68.24a2.71 2.71 0 0 0-.558-1.651l-7.284-9.461v-.033l14.591 13.322c6.234 6.54 16.909 1.903 16.909-7.35 0-5.24-3.719-9.658-8.684-10.303l-16.735-2.615 4.463-4.473c.853-.853 1.028-2.198.426-3.26l-2.603-4.56 4.178-5.567c.875-1.16.668-2.833-.47-3.73a2.537 2.537 0 0 0-3.631.481l-5.25 6.99a2.723 2.723 0 0 0-.186 2.974l2.483 4.31-5.491 5.501v-4.178a3.509 3.509 0 0 0-2.625-3.39V34.99a.878.878 0 0 0-.875-.875.878.878 0 0 0-.875.875v6.256a3.509 3.509 0 0 0-2.625 3.39v4.168l-5.491-5.49 2.472-4.32a2.724 2.724 0 0 0-.186-2.976l-5.25-6.989a2.546 2.546 0 0 0-3.631-.481c-1.137.897-1.334 2.57-.47 3.73l4.178 5.567-2.614 4.56c-.602 1.062-.427 2.407.426 3.26l4.463 4.474-16.735 2.614c-4.943.656-8.662 5.075-8.662 10.314 0 9.253 10.675 13.89 16.909 7.339L226.5 57.094v.033l-7.273 9.45a2.71 2.71 0 0 0-.558 1.651v5.983l-4.605 5.36c-.941 1.104-.842 2.788.23 3.75a2.554 2.554 0 0 0 3.653-.229l5.25-6.114a2.711 2.711 0 0 0 .645-1.76v-6.06l2.658-3.456v6.901c0 1.936 1.564 3.5 3.5 3.5s3.5-1.564 3.5-3.5v-6.901l2.658 3.456v6.06c0 .644.23 1.279.645 1.76l5.25 6.114a2.535 2.535 0 0 0 3.653.23l.011.01Z"/>
  </g>
  <path fill="#fff" stroke="#28465F" d="M92.957 24a3.993 3.993 0 0 0-3.993 3.993v15.971H72.993A3.993 3.993 0 0 0 69 47.957V63.93a3.993 3.993 0 0 0 3.993 3.993h15.971v15.971a3.993 3.993 0 0 0 3.993 3.993h15.972a3.992 3.992 0 0 0 3.993-3.993V67.922h15.971a3.995 3.995 0 0 0 3.993-3.993V47.957a3.996 3.996 0 0 0-3.993-3.993h-15.971V27.993A3.993 3.993 0 0 0 108.929 24H92.957Z"/>
  <defs>
    <clipPath id="a">
      <path fill="#fff" d="M66 150h70v70H66z"/>
    </clipPath>
    <clipPath id="c">
      <path fill="#fff" d="M195 21h70v70h-70z"/>
    </clipPath>
  </defs>
</svg>
